<?xml version="1.0" encoding="iso-8859-1"?>
<!-- Generator: Adobe Illustrator 19.0.0, SVG Export Plug-In . SVG Version: 6.00 Build 0)  -->
<svg version="1.1" id="Layer_1" xmlns="http://www.w3.org/2000/svg" xmlns:xlink="http://www.w3.org/1999/xlink" x="0px" y="0px"
	 viewBox="0 0 512 512" style="enable-background:new 0 0 512 512;" xml:space="preserve">
<path style="fill:#F4AD47;" d="M344.691,55.179c-94.24-68.469-226.163-47.576-294.632,46.664S2.483,328.008,96.724,396.477
	c79.117,57.482,184.803,51.975,257.188-7.059c13.847-11.254,26.457-24.483,37.446-39.606c10.989-15.123,19.673-31.204,26.096-47.852
	C451.23,214.875,423.808,112.661,344.691,55.179z M345.252,316.314c-49.974,68.784-146.247,84.033-215.03,34.057
	c-68.784-49.974-84.031-146.246-34.057-215.03s146.246-84.031,215.03-34.057S395.226,247.531,345.252,316.314z"/>
<circle style="fill:#61C7D2;" cx="220.711" cy="227.953" r="102.226"/>
<path style="fill:#F4AD47;" d="M502.147,363.494l-84.694-61.533c-6.423,16.648-15.109,32.728-26.096,47.852
	c-10.989,15.123-23.597,28.352-37.446,39.606l148.236,107.699L502.147,363.494L502.147,363.494z"/>
<g>
	<path style="fill:#231F20;" d="M220.708,115.878c-61.801,0-112.079,50.278-112.079,112.079s50.278,112.079,112.079,112.079
		s112.079-50.278,112.079-112.079S282.509,115.878,220.708,115.878z M312.549,218.104h-31.108
		c-1.144-25.119-6.64-48.561-15.779-66.839c-0.964-1.928-1.963-3.776-2.99-5.557C289.786,159.599,309.181,186.483,312.549,218.104z
		 M210.855,138.682v79.421h-31.164C181.685,177.739,195.741,147.998,210.855,138.682z M210.855,237.811v79.421
		c-15.113-9.315-29.17-39.055-31.164-79.421L210.855,237.811L210.855,237.811z M230.561,317.232v-79.421h31.163
		C259.73,278.175,245.675,307.916,230.561,317.232z M230.561,218.104v-79.421c15.113,9.315,29.17,39.055,31.164,79.421H230.561z
		 M178.744,145.708c-1.027,1.781-2.027,3.63-2.99,5.557c-9.139,18.278-14.634,41.719-15.779,66.839h-31.108
		C132.236,186.483,151.63,159.599,178.744,145.708z M128.866,237.811h31.108c1.144,25.119,6.64,48.561,15.779,66.839
		c0.964,1.928,1.963,3.776,2.99,5.557C151.63,296.315,132.236,269.431,128.866,237.811z M262.673,310.205
		c1.027-1.781,2.027-3.63,2.99-5.557c9.139-18.278,14.634-41.719,15.779-66.839h31.108
		C309.181,269.431,289.786,296.315,262.673,310.205z"/>
	<path style="fill:#231F20;" d="M316.986,93.313C288.808,72.841,255.56,62.02,220.835,62.02c-52.334,0-101.92,25.245-132.642,67.531
		c-25.717,35.395-36.111,78.688-29.266,121.902s30.106,81.174,65.504,106.891c28.178,20.472,61.426,31.294,96.151,31.294
		c52.334,0,101.92-25.245,132.642-67.531C406.311,249.037,390.055,146.401,316.986,93.313z M337.281,310.523
		c-27.027,37.199-70.653,59.407-116.699,59.407c-30.536,0-59.779-9.519-84.568-27.53c-31.137-22.623-51.601-56.018-57.622-94.032
		s3.122-76.098,25.745-107.235c27.027-37.199,70.653-59.407,116.699-59.407c30.536,0,59.779,9.519,84.568,27.53
		C369.681,155.957,383.981,246.245,337.281,310.523z"/>
	<path style="fill:#231F20;" d="M507.938,355.524l-78.675-57.161c31.898-91.469,0.156-193.804-78.781-251.157
		C312.505,19.614,267.69,5.03,220.885,5.03c-34.141,0-68.302,8.027-98.791,23.212C90.581,43.935,62.916,67.383,42.087,96.052
		c-71.557,98.492-49.645,236.839,48.846,308.397c37.973,27.588,82.781,42.17,129.581,42.17c0.004,0,0,0,0.004,0
		c48.288,0,95.439-15.889,133.62-44.859l142.219,103.329c1.716,1.246,3.748,1.881,5.792,1.881c1.527,0,3.061-0.355,4.472-1.074
		c3.302-1.681,5.38-5.073,5.38-8.779V363.494C512,360.341,510.49,357.377,507.938,355.524z M347.684,381.782
		c-35.687,29.105-80.85,45.134-127.17,45.132c-42.611,0-83.415-13.281-117.999-38.408C12.815,323.335-7.141,197.336,58.03,107.635
		c37.715-51.909,98.595-82.899,162.856-82.899c42.616,0,83.424,13.283,118.015,38.412c73.774,53.602,102.299,150.339,69.36,235.265
		c-6.207,16.089-14.576,31.433-24.875,45.608c-4.354,5.993-9.032,11.704-13.972,17.145
		C362.669,368.593,355.417,375.498,347.684,381.782z M492.294,477.779l-122.535-89.026c10.88-9.962,20.794-21.07,29.569-33.15
		c8.777-12.08,16.28-24.942,22.39-38.366l70.576,51.277L492.294,477.779L492.294,477.779z"/>
</g>
<g>
</g>
<g>
</g>
<g>
</g>
<g>
</g>
<g>
</g>
<g>
</g>
<g>
</g>
<g>
</g>
<g>
</g>
<g>
</g>
<g>
</g>
<g>
</g>
<g>
</g>
<g>
</g>
<g>
</g>
</svg>
