<?xml version="1.0" encoding="utf-8"?>
<!-- Generator: Adobe Illustrator 26.0.3, SVG Export Plug-In . SVG Version: 6.00 Build 0)  -->
<svg version="1.0" id="katman_1" xmlns="http://www.w3.org/2000/svg" xmlns:xlink="http://www.w3.org/1999/xlink" x="0px" y="0px"
	 viewBox="0 0 800 600" style="enable-background:new 0 0 800 600;" xml:space="preserve">
<style type="text/css">
	.st0{fill-rule:evenodd;clip-rule:evenodd;fill:#F79367;}
	.st1{fill-rule:evenodd;clip-rule:evenodd;fill:#415876;}
</style>
<g id="svgg">
	<path id="path0" class="st0" d="M616.6,233.3c-9,2.8-12,14-5.6,20.8c5.9,6.2,17.7,4.5,21.2-3c1.1-2.3,1.2-9,0.1-11.1
		C629.6,234.4,622.6,231.4,616.6,233.3 M113.1,241.3c-5,0.6-11.8,2.7-14.8,4.5c-0.5,0.3-1.3,0.8-1.9,1.1
		c-13.6,7.4-16.5,30.1-5.2,41.5c8,8.1,14.4,9.8,19.2,5.2c10.9-10.6,12.1-12.6,7.8-14.2c-7.7-2.9-10.9-6-10.8-10.7
		c0-6.1,3.8-8.3,14.4-8.3c6.7,0,10.3,0.6,15.1,2.6c1.1,0.5,2.6,1.1,3.4,1.3c0.8,0.3,1.6,0.7,1.9,0.8c0.3,0.2,0.6,0.2,0.7,0.1
		c0.3-0.3,2.4-5.9,2.4-6.3c0-0.2,0.7-2.1,1.6-4.3c2.8-7,2.8-7.4,0.6-7.9c-0.4-0.1-1.4-0.5-2.2-0.9C137.1,242,123.1,240,113.1,241.3
		 M673.2,265.4c-10.9,2.5-20.6,10.3-24.5,19.7c-5.8,13.7-4.9,31.1,2.1,41.4c0.6,0.9,1.1,1.8,1.1,1.9c0,1.1,7.1,7.9,9.8,9.4
		c3,1.7,6.7,3.4,7.7,3.6c0.6,0.1,2.3,0.5,3.7,0.9c3.7,0.9,13.5,0.9,17.2,0c1.4-0.3,3-0.7,3.6-0.8c2.2-0.5,8-3.5,10.7-5.7
		c5.4-4.3,9-9.7,11.4-17.1c3.2-9.8,2.8-23.7-1-32c-0.3-0.8-0.6-1.5-0.6-1.7c0-0.4-2.4-4.6-2.9-5.2c-0.2-0.3-0.6-0.8-0.8-1.2
		c-0.6-1.1-4.9-5.5-6.4-6.6c-3.3-2.3-4.2-2.8-6.6-3.9C690.5,264.9,680.2,263.8,673.2,265.4 M609.8,303.9c0,33.7,0,37.2,0.4,37.3
		c0.5,0.2,20.1,0.2,20.6,0c0.4-0.1,0.4-3.7,0.4-37.3v-37.2h-10.7h-10.7V303.9 M685.2,283.6c4.3,1.3,7.5,4.5,9.4,9.4
		c2.4,6.5,2,17.7-0.8,23.4c-0.5,1-1.1,2.2-1.3,2.6c-2.3,4.6-10.3,6.8-16.1,4.6c-12.1-4.6-13.1-31.9-1.5-38.7
		C677.6,283.2,682.1,282.6,685.2,283.6 M582.1,316.6c-0.1,0-0.9,0.3-1.7,0.5c-11.8,3.6-11.9,21-0.1,24.9c12.1,4,22.2-7.7,16.5-19.1
		C594.4,318.5,586.7,315.1,582.1,316.6"/>
	<path id="path1" class="st1" d="M324.5,232c-1,0.1-5.3,0.8-9.6,1.6c-4.3,0.7-7.9,1.4-8,1.4c-0.5,0-0.3,106.1,0.2,106.3
		c0.6,0.2,20.3,0.2,20.7-0.1c0.3-0.2,0.3-3.8,0.4-16.2l0.1-16l1.9,1.7c3,2.8,11.5,12.7,11.5,13.4c0,0.1,0.7,1.1,1.6,2.2
		c0.9,1.1,1.7,2.3,1.9,2.7c0.5,0.9,3.1,4.8,3.6,5.2c0.2,0.2,0.3,0.5,0.3,0.6c0,0.2,0.8,1.4,1.7,2.9c0.9,1.4,1.7,2.7,1.7,2.9
		s0.2,0.4,0.5,0.6c0.6,0.3,23.8,0.4,24.3,0c0.4-0.2,0-1.2-1-2.7c-0.3-0.4-1-1.6-1.6-2.8c-0.6-1.2-1.8-3.1-2.6-4.3
		c-0.8-1.2-1.4-2.2-1.4-2.3c0-0.2-3.4-5.1-5.4-7.9c-0.9-1.2-1.7-2.4-1.9-2.6c-0.2-0.3-1.1-1.5-2.1-2.7c-1-1.2-2.6-3.2-3.5-4.4
		c-2.6-3.2-7.7-8.9-9.6-10.7l-1.6-1.6l5.8-5.9c5.9-5.9,12.8-13.3,14.8-15.9c0.6-0.8,1.3-1.6,1.6-1.8c0.3-0.2,1.1-1.1,1.8-2
		c0.7-0.9,1.7-1.9,2.1-2.4c1.4-1.4,3.8-4.3,3.8-4.5c0-0.1-5.7-0.1-12.8-0.1l-12.8,0l-1.5,1.8c-1.4,1.7-3.1,3.6-5.6,6.5
		c-0.6,0.7-1.4,1.7-1.8,2.2c-0.7,0.9-2,2.4-5.8,6.6c-0.9,1.1-2.6,2.9-3.7,4.1c-1.1,1.2-2.5,2.8-3.2,3.5l-1.3,1.3l0-30.5l0-30.5
		l-0.9,0C326.7,231.8,325.5,231.9,324.5,232 M483.1,232c-1,0.1-5.3,0.8-9.6,1.6c-4.3,0.7-7.9,1.4-8,1.4c-0.3,0-0.3,81.6,0,85.6
		c0.7,8.2,3.7,14.4,8.2,17.1c2.1,1.2,5.8,2.9,7.3,3.3c4.5,1.2,14.2,2,14.5,1.2c0.1-0.2,0.3-1.7,0.6-3.4c0.3-1.7,0.9-5.4,1.4-8.2
		c1.1-6.3,1.1-5.8-0.1-5.8c-3.8,0-7.4-1.9-9.1-4.6c-1.5-2.5-1.4-0.4-1.5-46.2l-0.1-42.2l-0.9,0C485.3,231.8,484.1,231.9,483.1,232
		 M184.7,245.7c-1.7,0.3-4,0.7-4.9,0.8c-0.9,0.1-3.8,0.5-6.4,1c-2.6,0.4-4.7,0.8-4.8,0.8c-0.4,0-0.2,67.4,0.3,70.6
		c1.5,11.2,5.4,17.3,13.7,21.3c7.3,3.5,22.6,3.5,32.4,0.1c3.4-1.2,3.3-0.5,1.8-8.3c-0.7-3.6-1.3-7.2-1.4-8.1
		c-0.2-1.6-0.3-1.7-1.6-1.3c-2.2,0.8-7.4,1.7-11.3,1.8c-7.4,0.2-9.9-1.3-11.9-7.1l-0.7-2l-0.1-15.3l-0.1-15.3l12.7-0.1l12.7-0.1
		l0.1-8.9l0.1-8.9h-12.7h-12.7v-10.9V245l-1,0C188.3,245.1,186.4,245.3,184.7,245.7 M244.4,265.3c-7,0.9-13.6,2.6-13.7,3.4
		c-0.1,0.6,2.5,16.6,2.7,16.8c0.1,0.1,1.4-0.3,3-0.7c8.5-2.5,21.2-2.7,25.6-0.5c3.3,1.7,5.5,5.6,5.5,9.8c0,1.5,0,1.6-0.6,1.4
		c-4.2-1-16.2-1.2-21-0.4c-15.6,2.9-23.2,11.6-22.1,25.6c0.5,6.1,2.4,10.5,6,14.1c5.7,5.7,12.3,7.5,27.6,7.5
		c10.6,0,15.1-0.4,24.4-2.2l6.3-1.2l-0.1-24.5c-0.1-26.9-0.1-26.4-1.8-32.3c-1.6-5.7-5.7-11.1-9.9-13.1c-3.6-1.8-6.2-2.7-9.4-3.5
		C264.2,264.9,248.6,264.7,244.4,265.3 M407.9,265.3c-9.6,2.2-18.2,8.4-22.6,16.3c-1.3,2.3-3,5.9-3.2,6.7c-0.1,0.4-0.5,1.9-0.9,3.2
		c-2.2,7.5-2.2,18,0,25.8c0.4,1.3,0.8,2.8,0.9,3.3c0.3,1.1,2.4,5.3,3.8,7.6c3.1,5,11.4,11,17.6,12.8c5.3,1.5,9.2,2,15.6,2
		c6,0,10.7-0.5,18-1.9c1.9-0.4,6.9-2,7.5-2.5c0.6-0.4,0.5-1.5-1.2-11.3c-1.2-7-1-6.5-2-6.2c-9.5,3.8-25,4.3-31.6,1
		c-4.2-2.1-8.1-7.2-8.2-10.5c0-0.4,1.3-0.5,23.7-0.5H449l0.2-1.5c2.4-23.3-6-39.1-23.5-43.9C422.4,264.9,411,264.6,407.9,265.3
		 M500,267.2c0.1,0.3,0.3,1,0.4,1.7c0.3,1.7,3.3,11,6.9,21.4c0.3,0.9,1.2,3.3,1.9,5.3c0.7,2,1.7,4.6,2.2,6c0.5,1.3,1.4,3.6,2.1,5.2
		c0.7,1.5,1.3,3.1,1.5,3.6c0.2,0.8,0.7,2,2.6,6.1c0.6,1.3,1.1,2.4,1.1,2.6c0,0.3,2.3,5.3,5.5,12c1,2,2.1,4.4,2.5,5.3l0.7,1.6
		l-0.7,1.8c-3.6,8.7-10.2,11.2-21.2,8.1c-1.4-0.4-2.5-0.6-2.6-0.6c-0.2,0.2-2.5,10.3-2.5,10.9c0,0.5-0.8,4.3-1.2,5.7
		c-0.1,0.3,0.5,0.6,2.9,1.4c9.2,3,22.3,2.4,28.2-1.2c0.6-0.3,1.3-0.8,1.7-0.9c0.8-0.4,4.4-3.5,5.3-4.7c0.4-0.5,1.1-1.4,1.7-2.1
		c0.6-0.7,1.3-1.8,1.7-2.4c0.4-0.6,1.2-2,1.8-3.1c0.6-1.1,1.3-2.2,1.5-2.6c0.2-0.4,1.1-2.2,2-4.1c0.9-1.9,1.9-3.9,2.1-4.5
		c0.2-0.6,0.7-1.7,1.1-2.5c1.2-2.5,2.3-4.9,2.5-5.6c0.1-0.4,0.4-1.1,0.7-1.7c1.6-3.6,2.5-5.7,3.2-7.5c0.4-1.1,1.4-3.7,2.2-5.6
		c0.8-2,1.5-3.7,1.5-3.8c0-0.1,0.6-1.9,1.4-3.9c0.8-2,1.6-4.3,1.9-5.1c0.3-0.8,0.8-2.3,1.2-3.4c3-8.1,10.2-30.5,10.5-32.5l0.2-1.1
		l-11.1,0.1l-11.1,0.1l-0.1,0.8c0,0.4-0.9,3.7-1.9,7.2c-1,3.5-1.8,6.6-1.8,6.8c0,0.3-2.8,9.9-4.8,16.5c-0.6,1.9-1.4,4.6-1.9,6.1
		c-1.2,3.8-3.4,10.2-3.6,10.2c-0.2,0-1.1-2.1-1.1-2.6c0-0.2-0.6-2-1.4-4c-0.8-2-1.6-4.3-1.8-5c-0.2-0.7-1.2-3.8-2.3-6.8
		c-1-3-2.1-6.3-2.4-7.3c-0.3-1-1.1-3.8-1.9-6.1c-0.7-2.3-2.1-6.9-3-10.1l-1.7-5.9l-11.3,0C500.5,266.7,499.8,266.7,500,267.2
		 M421.2,283.5c0.8,0.4,1.9,1.1,2.4,1.6c0.5,0.5,1.3,1.1,1.6,1.4c1.3,1,3,5.2,3.4,8.4l0.2,1.4h-13.6c-15.7,0-14,0.4-12.9-3.2
		c1.6-4.9,3.7-7.8,7-9.5C412,282.3,418.8,282.3,421.2,283.5 M127.6,284.6c-1.2,0.4-2.6,1.7-6.6,6c-1.7,1.8-3.3,3.4-3.5,3.5
		c-0.2,0.1-1,1-1.8,2c-2.5,3-2.1,4.1,1.8,5.7c10.3,4.3,13.6,7.4,13.3,12.9c-0.3,7.5-8,10.2-24.1,8.5c-4.2-0.4-4.3-0.5-7.8-1.6
		c-4.5-1.5-6.5-2.2-8.4-3.2c-1.7-0.8-1.8-0.9-2-0.4c-0.1,0.3-0.3,0.9-0.6,1.4c-0.2,0.5-0.8,2.3-1.4,4c-0.5,1.7-1.6,4.7-2.3,6.7
		s-1.4,4.1-1.5,4.7l-0.2,1l1.6,0.8c4.2,2.1,11.1,4.4,15.4,5.1c1.1,0.2,3.1,0.5,4.4,0.7c11.1,1.9,27.5,0.1,35.4-3.7
		c3.9-1.9,9.8-6.6,9.8-7.8c0-0.2,0.2-0.6,0.5-0.9c4.8-5.1,5.7-21.7,1.7-29.7c-1.9-3.9-5.3-7.9-7.8-9.4c-0.6-0.4-1.4-0.9-1.8-1.2
		c-0.9-0.7-4.5-2.8-4.8-2.8c-0.1,0-1.1-0.4-2.3-0.9C130.9,284.2,129.4,283.9,127.6,284.6 M264.4,309.4c1.1,0.2,2.3,0.3,2.5,0.4
		c0.4,0.1,0.5,0.7,0.5,7.8v7.7l-0.7,0.2c-1.9,0.5-13.9,0.2-15.8-0.4c-5-1.6-7.3-6.6-5.1-11.1C247.6,310.1,255.5,308.2,264.4,309.4"
		/>
</g>
</svg>
